<svg xmlns="http://www.w3.org/2000/svg" viewBox="0 0 1200 280" width="1200" height="280" role="img" aria-label="Gym App — Front React">
  <defs>
    <linearGradient id="bn-bg" x1="0%" y1="0%" x2="100%" y2="100%">
      <stop offset="0%" stop-color="#eef2ff"/>
      <stop offset="50%" stop-color="#f5f3ff"/>
      <stop offset="100%" stop-color="#ede9fe"/>
    </linearGradient>
    <linearGradient id="bn-title" x1="0%" y1="0%" x2="100%" y2="0%">
      <stop offset="0%" stop-color="#4f46e5"/>
      <stop offset="100%" stop-color="#7c3aed"/>
    </linearGradient>
    <linearGradient id="bn-bar" x1="0%" y1="0%" x2="0%" y2="100%">
      <stop offset="0%" stop-color="#6366f1"/>
      <stop offset="100%" stop-color="#4f46e5"/>
    </linearGradient>
  </defs>
  <rect width="1200" height="280" rx="20" fill="url(#bn-bg)" stroke="#e2e8f0" stroke-width="1"/>
  <circle cx="1020" cy="90" r="100" fill="#c4b5fd" fill-opacity="0.35"/>
  <circle cx="140" cy="220" r="80" fill="#a5b4fc" fill-opacity="0.25"/>
  <rect x="48" y="72" width="5" height="136" rx="2.5" fill="url(#bn-title)"/>
  <text x="72" y="132" font-family="ui-sans-serif,system-ui,-apple-system,sans-serif" font-size="44" font-weight="800" letter-spacing="-0.03em" fill="url(#bn-title)">Gym App — Front React</text>
  <text x="72" y="178" font-family="ui-sans-serif,system-ui,sans-serif" font-size="22" font-weight="600" fill="#64748b">React · Vite · TypeScript · Tailwind</text>
  <text x="72" y="218" font-family="ui-monospace,SFMono-Regular,monospace" font-size="13" fill="#6366f1">Dashboard · QR · PWA · API Gym Central</text>
  <g transform="translate(920 96)">
    <rect x="-60" y="-10" width="120" height="20" rx="10" fill="#e0e7ff"/>
    <rect x="-48" y="-6" width="40" height="12" rx="6" fill="url(#bn-bar)"/>
    <rect x="8" y="-6" width="40" height="12" rx="6" fill="url(#bn-bar)"/>
  </g>
  <g transform="translate(1000 168)" opacity="0.9">
    <rect width="12" height="12" rx="2" fill="#6366f1" fill-opacity="0.4"/>
    <rect x="16" width="12" height="12" rx="2" fill="#6366f1" fill-opacity="0.6"/>
    <rect y="16" width="12" height="12" rx="2" fill="#6366f1" fill-opacity="0.5"/>
    <rect x="16" y="16" width="12" height="12" rx="2" fill="#6366f1" fill-opacity="0.35"/>
  </g>
</svg>
