<svg xmlns="http://www.w3.org/2000/svg" viewBox="0 0 400 200" width="400" height="200" role="img" aria-hidden="true">
  <defs>
    <linearGradient id="dh-bg" x1="0%" y1="0%" x2="100%" y2="100%">
      <stop offset="0%" stop-color="#eef2ff"/>
      <stop offset="100%" stop-color="#f5f3ff"/>
    </linearGradient>
    <linearGradient id="dh-bar" x1="0%" y1="0%" x2="0%" y2="100%">
      <stop offset="0%" stop-color="#6366f1"/>
      <stop offset="100%" stop-color="#4f46e5"/>
    </linearGradient>
    <linearGradient id="dh-accent" x1="0%" y1="0%" x2="100%" y2="0%">
      <stop offset="0%" stop-color="#a855f7"/>
      <stop offset="100%" stop-color="#6366f1"/>
    </linearGradient>
    <filter id="dh-soft" x="-20%" y="-20%" width="140%" height="140%">
      <feGaussianBlur stdDeviation="8" result="b"/>
      <feMerge>
        <feMergeNode in="b"/>
        <feMergeNode in="SourceGraphic"/>
      </feMerge>
    </filter>
  </defs>
  <rect width="400" height="200" rx="16" fill="url(#dh-bg)"/>
  <circle cx="320" cy="48" r="72" fill="#c4b5fd" fill-opacity="0.25"/>
  <circle cx="72" cy="168" r="56" fill="#818cf8" fill-opacity="0.2"/>
  <g transform="translate(200 100)" filter="url(#dh-soft)">
    <rect x="-68" y="-12" width="136" height="24" rx="12" fill="#e0e7ff" stroke="#c7d2fe" stroke-width="1"/>
    <rect x="-56" y="-8" width="48" height="16" rx="8" fill="url(#dh-bar)"/>
    <rect x="8" y="-8" width="48" height="16" rx="8" fill="url(#dh-bar)"/>
  </g>
  <g transform="translate(88 72)" fill="none" stroke="url(#dh-accent)" stroke-width="2.5" stroke-linecap="round">
    <path d="M0 20 L16 4 L32 20"/>
    <path d="M48 20 L64 4 L80 20"/>
  </g>
  <g transform="translate(248 52)" opacity="0.85">
    <rect x="0" y="0" width="14" height="14" rx="2" fill="#6366f1" fill-opacity="0.35"/>
    <rect x="18" y="0" width="14" height="14" rx="2" fill="#6366f1" fill-opacity="0.55"/>
    <rect x="0" y="18" width="14" height="14" rx="2" fill="#6366f1" fill-opacity="0.45"/>
    <rect x="18" y="18" width="14" height="14" rx="2" fill="#6366f1" fill-opacity="0.25"/>
  </g>
  <path d="M32 148 Q120 128 200 148 T368 140" fill="none" stroke="#a78bfa" stroke-opacity="0.35" stroke-width="2" stroke-linecap="round"/>
</svg>
